<svg width="70" height="70" viewBox="0 0 70 70" fill="none" xmlns="http://www.w3.org/2000/svg">
<circle cx="35" cy="35" r="35" fill="#FFC000"/>
<path d="M52 38.5C52.8284 38.5 53.5 37.8284 53.5 37C53.5 36.1716 52.8284 35.5 52 35.5V38.5ZM15.9393 35.9393C15.3536 36.5251 15.3536 37.4749 15.9393 38.0607L25.4853 47.6066C26.0711 48.1924 27.0208 48.1924 27.6066 47.6066C28.1924 47.0208 28.1924 46.0711 27.6066 45.4853L19.1213 37L27.6066 28.5147C28.1924 27.9289 28.1924 26.9792 27.6066 26.3934C27.0208 25.8076 26.0711 25.8076 25.4853 26.3934L15.9393 35.9393ZM52 35.5L17 35.5V38.5L52 38.5V35.5Z" fill="white"/>
</svg>
