<svg width="36" height="36" viewBox="0 0 36 36" fill="none" xmlns="http://www.w3.org/2000/svg">
<path d="M32.7234 17.3672C32.5688 15.8203 31.8516 14.3437 30.6914 13.2609C29.4891 12.143 27.9281 11.5242 26.2828 11.5242C23.3648 11.5242 20.8477 13.4508 20.0602 16.2352C19.568 15.743 18.7594 15.4125 18 15.4125C17.2406 15.4125 16.432 15.743 15.9398 16.2352C15.1523 13.4508 12.6352 11.5242 9.71719 11.5242C8.07891 11.5242 6.51094 12.1359 5.30859 13.2539C4.14844 14.3437 3.43125 15.8203 3.27656 17.3672H2.25V18.6328H3.27656C3.43125 20.1797 4.14844 21.6562 5.30859 22.7391C6.51094 23.857 8.07187 24.4758 9.71719 24.4758C13.2891 24.4758 16.193 21.5789 16.193 18.007C16.193 18 16.193 18 16.193 18C16.193 17.3039 17.0016 16.4812 18 16.4812C18.9984 16.4812 19.807 17.3039 19.807 18C19.807 18 19.807 18 19.807 18.007C19.807 21.5789 22.7109 24.4758 26.2828 24.4758C27.9211 24.4758 29.4891 23.8641 30.6914 22.7391C31.8516 21.6562 32.5688 20.1727 32.7234 18.6258H33.75V17.3602H32.7234V17.3672ZM26.2828 23.4141C23.2945 23.4141 20.8687 20.9812 20.8687 18C20.8687 15.0117 23.3016 12.5859 26.2828 12.5859C29.2711 12.5859 31.6969 15.0187 31.6969 18C31.6969 20.9883 29.2711 23.4141 26.2828 23.4141ZM9.71719 23.4141C6.72891 23.4141 4.30313 20.9812 4.30313 18C4.30313 15.0117 6.73594 12.5859 9.71719 12.5859C12.7055 12.5859 15.1312 15.0187 15.1312 18C15.1312 20.9883 12.7055 23.4141 9.71719 23.4141Z" fill="black"/>
</svg>
